<svg width="100" height="100" fill="none" xmlns="http://www.w3.org/2000/svg"><path d="M98.231 55.398l-10.302-4.96a3.114 3.114 0 00-3.553.604L50.65 81.792a2.083 2.083 0 00.002 3.08l2.755 2.505c.743.675 1.86.725 2.66.118l40.614-30.81c1.363-1.034 3.32-.062 3.32 1.648v-.12c0-1.2-.688-2.294-1.77-2.815z" fill="#0065A9"/><path d="M98.231 94.602l-10.302 4.96a3.115 3.115 0 01-3.553-.604L50.65 68.208a2.083 2.083 0 01.002-3.08l2.755-2.505a2.083 2.083 0 012.66-.118l40.614 30.81c1.363 1.034 3.32.062 3.32-1.648v.12c0 1.2-.688 2.294-1.77 2.815z" fill="#007ACC"/><path d="M87.928 99.563a3.116 3.116 0 01-3.553-.605c1.153 1.153 3.124.337 3.124-1.294V52.336c0-1.63-1.971-2.448-3.124-1.294a3.116 3.116 0 013.553-.605l10.3 4.953A3.125 3.125 0 01100 58.207v33.586a3.125 3.125 0 01-1.771 2.817l-10.3 4.953z" fill="#1F9CF0"/><path fill-rule="evenodd" clip-rule="evenodd" d="M85.426 99.659a3.112 3.112 0 002.48-.096l10.295-4.953a3.125 3.125 0 001.77-2.816V58.207a3.125 3.125 0 00-1.77-2.817l-10.294-4.953a3.113 3.113 0 00-3.552.605L64.648 69.02l-8.584-6.516a2.081 2.081 0 00-2.66.118l-2.752 2.504a2.084 2.084 0 00-.002 3.082L58.094 75l-7.444 6.792a2.084 2.084 0 00.002 3.08l2.753 2.505c.742.675 1.86.725 2.659.118l8.584-6.516 19.707 17.98c.311.311.677.546 1.071.7zm2.052-36.01L72.525 75l14.953 11.35v-22.7z" fill="url(#paint0_linear)" opacity=".25"/><path fill-rule="evenodd" clip-rule="evenodd" d="M5 44.979C5 20.144 25.144 0 49.979 0 73.413 0 92.67 17.936 95 40.826H78.852c-.43-4.108-2.2-7.566-4.59-10.196.021-.087.052-.195.088-.325.422-1.523 1.649-5.946-.64-11.54 0 0-3.863-1.105-12.418 4.69-3.587-.828-7.45-1.38-11.313-1.38-3.864 0-7.727.276-11.314 1.38-8.554-5.795-12.417-4.69-12.417-4.69-2.439 5.96-.887 10.59-.569 11.54l.017.049c-3.036 3.311-4.691 7.174-4.691 12.141 0 15.945 8.82 20.515 17.945 22.014v4.723c-.131.52-.23 1.08-.285 1.685-2.483 1.104-8.83 3.036-12.97-3.863 0 0-2.483-4.415-6.898-4.69 0 0-4.415 0-.276 2.759 0 0 3.036 1.38 4.967 6.622 0 0 2.76 8.83 15.177 6.071v7.726c0 1.104-.828 2.484-3.035 2.208C17.97 81.68 5 64.847 5 44.979z" fill="#202124"/><defs><linearGradient id="paint0_linear" x1="74.97" y1="50.129" x2="74.97" y2="99.871" gradientUnits="userSpaceOnUse"><stop stop-color="#fff"/><stop offset="1" stop-color="#fff" stop-opacity="0"/></linearGradient></defs></svg>
